<svg xmlns="http://www.w3.org/2000/svg" width="375" height="375" viewBox="0 0 375 375"><g class="layer" transform="translate(-4.412 -2.571)"><title>Layer 1</title><path fill="#49888e" d="M177.211 4.571h20.908l7.965 1h11.948l14.934 4 10.951 6 11.948 11 5.973 10 4.978 12 1.992 13v51s24.589-.874 36.837 0c4.682.335 9.371.917 13.939 2a86.3 86.3 0 0 1 14.934 5c3.128 1.382 6.08 3.154 8.96 5 3.806 2.44 7.52 5.055 10.952 8 2.498 2.144 4.864 4.467 6.97 7 3.362 4.047 6.477 8.358 8.96 13 2.538 4.744 4.391 9.855 5.974 15 .903 2.937 1.657 5.946 1.99 9 .906 8.284 1.015 16.73 0 25-.5 4.093-1.695 8.086-2.986 12a88.4 88.4 0 0 1-4.978 12c-1.744 3.47-3.673 6.875-5.974 10-2.654 3.607-5.713 6.923-8.96 10-3.091 2.93-6.376 5.7-9.956 8-5 3.214-10.378 5.888-15.93 8-4.818 1.834-9.834 3.267-14.934 4-13.802 1.985-41.816 1-41.816 1l-3.116.34-.866 57.66-4.978 16-5.974 10-8.96 10-10.952 7-11.948 5-4.978 1-19.912 1h-14.934l-19.912-1-10.952-3-11.947-6-9.956-9-6.97-8-5.973-13-2.987-12v-56s-27.28 1.347-40.82 0c-5.052-.502-10.059-1.58-14.934-3-4.44-1.293-8.82-2.9-12.943-5-4.927-2.508-9.526-5.664-13.939-9-2.819-2.13-5.566-4.401-7.965-7-3.385-3.666-6.343-7.746-8.96-12-2.731-4.438-5.201-9.094-6.97-14a76 76 0 0 1-3.982-17c-.765-6.622-.7-13.37 0-20 .5-4.746 1.546-9.452 2.987-14 1.532-4.838 3.476-9.586 5.973-14 2.23-3.941 5.149-7.457 7.965-11 2.202-2.769 4.383-5.59 6.97-8 3.65-3.4 7.677-6.429 11.947-9 4.711-2.837 9.757-5.155 14.934-7a64.8 64.8 0 0 1 11.947-3c7.33-1.117 14.795-1.082 22.206-1.255 8.526-.198 25.584.255 25.584.255v-57l3.982-15 6.97-12 7.964-9 9.956-7 10.952-5 7.965-2z"/><path fill="#63aea2" d="M201.823 5.091s10.86-.304 16.209.48c5.097.748 10.15 2.081 14.934 4a52 52 0 0 1 10.951 6c4.395 3.156 8.531 6.797 11.948 11 2.447 3.012 4.229 6.53 5.973 10 1.945 3.869 3.812 7.828 4.978 12 1.18 4.222 1.659 8.629 1.992 13 1.29 16.95 0 51 0 51-.01.896 0 4.95 0 10l-2.987 12-5.974 14-5.973 8 3.982-1 7.965-3h41.816l7.964 2 7.965 4 9.956 8 3.983 9 1.991 6v14l-3.982 12-6.97 9-4.978 4-2.987 4-11.947 3-42.811-1-10.952-4-9.956-9-22.9-23 19.794-21.88-20.61 20.36-.408.45-1.762-1.94-2.1-2.35-1.882-1.65-13.939-14-1.752-1.94-2.23-2.06-3.565-3.61-.219-.09 29.67-30.3-28.873 29-3.983-2-27.877-28-4.978-12-1.991-75 .996-5h.995v6h71.684l-2.987-16-4.978-9-4.978-5-4.978-4-5.973-3-3.266-2.48z"/><path fill="#f3f9f8" d="m192.146 218.571 31.86 30 4.977 10v75H157.3v-75l4.978-10zm-34.847-173h71.684v74s-2.222 6.234-3.982 9c-1.9 2.986-4.56 5.413-6.97 8-7.695 8.262-23.894 24-23.894 24l-3.983-2-27.877-28-4.45-7.38z"/><path fill="#4a888d" d="M165.264 191.571h2.987v2l3.982 2 12.943 13v2l3.983 2 3.982 5-6.97 8-23.894 24-3.982 9-.996 75h71.684v1H157.3l2.987 15 4.978 10 3.983 5 8.96 6 5.974 2v1s-12 .797-17.921 0c-3.75-.504-7.417-1.643-10.952-3-4.16-1.596-8.268-3.48-11.947-6-3.69-2.525-6.821-5.806-9.956-9-2.478-2.523-5.05-5.027-6.97-8-2.586-4.003-4.395-8.498-5.973-13-1.364-3.888-2.987-12-2.987-12l-.996-70 1.991-5 2.792-5.901 4.178-11.099 7.965-7z"/><path fill="#f1f9f7" d="M265.82 152.571h41.817s5.398 1.047 7.964 2a41.6 41.6 0 0 1 7.965 4c3.58 2.301 7.36 4.62 9.956 8 1.997 2.6 2.944 5.888 3.983 9 1.055 3.161 1.924 6.424 2.26 9.74.344 3.404.32 6.89-.269 10.26-.727 4.153-2.002 8.283-3.982 12-1.786 3.351-4.61 6.03-6.97 9-1.284 1.617-2.442 3.353-3.912 4.8-1.227 1.209-2.51 2.441-4.053 3.2-3.686 1.815-11.947 3-11.947 3l-42.811-1s-7.622-1.991-10.952-4c-3.828-2.308-6.717-5.913-9.956-9-7.831-7.462-22.9-23-22.9-23l1.992-4s16.735-19.374 26.882-27c3.33-2.502 7.078-4.48 10.951-6 1.275-.5 3.983-1 3.983-1"/><path fill="#f2f9f7" d="M77.65 152.571h41.816s8.32 1.879 11.947 4c3.859 2.257 6.717 5.914 9.956 9 7.831 7.463 22.9 23 22.9 23l-1.992 4-26.881 27-5.974 4-9.956 3H76.655s-7.552-2.112-10.952-4c-3.312-1.838-6.308-4.289-8.96-7-2.327-2.377-4.394-5.068-5.974-8-1.85-3.43-3.309-7.157-3.983-11-.863-4.924-.941-10.09 0-15 .676-3.525 2.204-6.885 3.983-10 1.882-3.296 4.227-6.38 6.97-9 2.935-2.803 6.31-5.226 9.955-7 3.118-1.517 9.956-3 9.956-3"/><path fill="#32647b" d="M177.211 4.571h20.908l6.97 2 8.96 5 4.978 4 5.974 9 2.987 8 .995 4v8l-72.933.256s1.667 42.184 1.99 66.858c.038 2.79-.363 5.603-.004 8.37.377 2.913 2.25 8.516 2.25 8.516l-4.978-2-7.965-5-8.96-4-7.258-2.07-5.506-1.29-3.863-.93-4.271-.71v-57s2.003-10.222 3.982-15c1.771-4.275 4.263-8.25 6.97-12 2.345-3.25 4.98-6.33 7.964-9 3.026-2.705 6.438-4.983 9.956-7a66 66 0 0 1 10.952-5c2.584-.905 5.265-1.55 7.965-2 1.971-.327 3.982-.333 5.974-.5l5.973-.5z"/><path fill="#33657a" d="m225 249.571 3.983 2s6.514 4.223 9.956 6c3.977 2.054 8.054 3.974 12.307 5.361 5.82 1.898 17.92 4 17.92 4l.637 1.64-.995 56s-2.702 10.901-4.978 16c-1.584 3.546-3.673 6.874-5.974 10-2.654 3.606-5.552 7.102-8.96 10-3.303 2.807-7.116 4.99-10.952 7-3.826 2.003-7.821 3.735-11.948 5-1.618.495-4.978 1-4.978 1l-19.912 1h-14.934l-9.956-4-7.965-6-6.97-10-3.982-13v-7h71.684l-.995-76z"/><path fill="#113261" d="M157.3 334.571h71.683s.386 5.362 0 8c-.503 3.444-1.545 6.836-2.987 10-1.8 3.953-4.057 7.786-6.969 11-2.546 2.812-5.714 5.048-8.96 7-2.804 1.687-5.764 3.319-8.96 4-4.87 1.038-10.047.946-14.935 0-3.51-.678-6.84-2.24-9.956-4-2.893-1.633-5.657-3.604-7.965-6a39.2 39.2 0 0 1-6.97-10c-1.981-4.073-3.31-8.516-3.982-13-.345-2.307 0-7 0-7"/><path fill="#11325f" d="M186.172 5.571s5.557-.87 8.343-.71c2.833.163 5.641.822 8.343 1.69 3.889 1.25 7.696 2.886 11.181 5.02 1.814 1.112 3.542 2.427 4.978 4 2.426 2.658 4.337 5.791 5.974 9 1.293 2.535 2.144 5.281 2.987 8 .406 1.313.828 2.636.995 4 .325 2.647 0 8 0 8h-72.082s.352-7.154 1.264-10.59c1.34-5.043 3.196-10.083 6.104-14.41 2.363-3.516 5.693-6.31 8.96-9 .925-.762 1.914-1.468 2.987-2 1.798-.89 3.77-1.384 5.695-1.95 1.403-.412 2.809-.873 4.261-1.05z"/></g></svg>